:SAMPLES-PER-SECOND 30
:FULLY-SPECIFIED
:DEGREES
617
root  39.1072 37.9084 21.1404 175.986 75.4896 -178.922
RightUpLeg  -17.9264 -25.1952 -11.5726
RightLeg  20.5784 3.64942 1.38571
RightFoot  7.61954 -1.16241 7.19717
RightToes  0.00048216 0.542163 -0.142577
Spine  17.5418 0.461686 3.50382
Spine1  10.6612 3.66321 -8.18083
HEad  3.40535 23.2031 -13.5131
LeftShoulder1  7.95355 -12.9151 -42.0589
LeftArm  -16.097 20.6014 -26.9769
LeftForeArm  53.4894 -78.0515 -60.3802
LeftHand  -0.25398 0.0180481 5.50724
RightShoulder  4.3831 8.02554 32.0722
RightArm  -3.14657 -22.4418 24.2278
RightForeArm  33.3467 77.6606 94.2988
RightHand  0.790977 -11.3062 -16.3452
LeftUpLeg  -2.83257 -6.10188 6.07026
LeftLeg  42.4615 4.07068 4.45641
LeftFoot  -16.6136 -0.30126 -8.04947
LeftToes  1.06244e-005 4.65855e-005 -8.18506e-006
618
root  40.2917 37.7379 21.8663 -176.408 72.0011 -170.203
RightUpLeg  -17.3276 -28.2161 -8.97128
RightLeg  26.4608 3.35766 1.53646
RightFoot  3.37276 -0.558016 4.47205
RightToes  0.00048216 0.542163 -0.142577
Spine  19.7516 -0.359589 7.30901
Spine1  10.6504 3.62058 -7.70527
HEad  3.37095 22.4144 -13.7864
LeftShoulder1  8.1044 -12.9384 -42.846
LeftArm  -16.7993 19.5394 -27.0091
LeftForeArm  48.6757 -77.4216 -55.5269
LeftHand  -0.25398 0.0180481 5.50724
RightShoulder  4.66269 8.52046 32.8366
RightArm  -2.79365 -19.702 23.131
RightForeArm  24.8111 77.6612 86.233
RightHand  0.764347 -10.9618 -16.7624
LeftUpLeg  -8.72517 -5.96313 9.85054
LeftLeg  53.5111 5.45887 8.34618
LeftFoot  -7.28819 0.0933941 -2.63052
LeftToes  1.06244e-005 4.65855e-005 -8.18506e-006
619
root  41.4562 37.6982 22.5784 -173.413 68.8667 -166.719
RightUpLeg  -16.0902 -29.7512 -7.08854
RightLeg  30.0065 1.59782 0.750993
RightFoot  -1.81168 -0.286071 3.37308
RightToes  0.00048216 0.542163 -0.142577
Spine  21.0703 -0.556204 9.12911
Spine1  10.7814 3.78662 -6.88423
HEad  3.5655 20.8547 -13.0479
LeftShoulder1  8.2835 -13.1776 -43.1867
LeftArm  -17.6459 18.6894 -27.146
LeftForeArm  45.2655 -76.8473 -51.8504
LeftHand  -0.25398 0.0180481 5.50724
RightShoulder  4.85376 8.86689 33.2945
RightArm  -2.05489 -16.545 22.356
RightForeArm  14.3096 77.3498 77.0399
RightHand  0.774902 -10.8036 -17.4208
LeftUpLeg  -14.8115 -3.9135 11.8482
LeftLeg  60.9894 5.67855 11.4629
LeftFoot  -0.34099 -0.390464 4.45565
LeftToes  1.06244e-005 4.65855e-005 -8.18506e-006
620
root  42.7054 37.8688 23.2595 -174.206 66.4888 -167.818
RightUpLeg  -14.3401 -30.6591 -6.49289
RightLeg  30.9551 0.0425949 -0.223159
RightFoot  -4.46045 -0.264966 3.90081
RightToes  0.00048216 0.542163 -0.142577
Spine  21.3959 -0.11159 8.53955
Spine1  11.1603 4.1263 -6.82645
HEad  3.67502 19.4946 -11.8165
LeftShoulder1  8.38896 -13.4537 -43.0142
LeftArm  -18.35 18.1246 -26.9995
LeftForeArm  42.3428 -76.3065 -49.0057
LeftHand  -0.25398 0.0180481 5.50724
RightShoulder  4.91221 8.9802 33.405
RightArm  -0.995409 -13.305 22.4032
RightForeArm  3.91546 76.6915 67.9058
RightHand  0.817855 -11.0225 -17.6308
LeftUpLeg  -19.6436 0.264671 11.2047
LeftLeg  63.4436 5.09852 11.5994
LeftFoot  0.259068 -0.665491 6.52711
LeftToes  1.06244e-005 4.65855e-005 -8.18506e-006
621
root  44.0093 38.2103 23.83 -175.585 63.9414 -169.969
RightUpLeg  -12.2763 -32.3963 -6.39361
RightLeg  30.4213 -0.791706 -0.75641
RightFoot  -5.77359 -0.230124 3.88475
RightToes  0.00048216 0.542163 -0.142577
Spine  21.2149 0.362986 7.34365
Spine1  11.478 4.31872 -7.08816
HEad  3.98349 18.2677 -10.6651
LeftShoulder1  8.42972 -13.6175 -42.7965
LeftArm  -18.6911 17.6552 -26.5099
LeftForeArm  38.7558 -75.5972 -45.8757
LeftHand  -0.25398 0.0180481 5.50724
RightShoulder  4.92256 9.01429 33.3805
RightArm  0.00829432 -10.8752 22.9458
RightForeArm  -3.53742 75.8734 60.6141
RightHand  0.842138 -11.3836 -17.0849
LeftUpLeg  -23.3 5.39449 8.74062
LeftLeg  61.4313 4.53963 9.59376
LeftFoot  -1.90772 -0.319692 3.98725
LeftToes  1.06244e-005 4.65855e-005 -8.18506e-006
622
root  45.3263 38.5734 24.299 -175.593 60.78 -170.948
RightUpLeg  -10.0307 -35.0129 -5.73298
RightLeg  29.1023 -1.56023 -1.1936
RightFoot  -7.53745 -0.143333 2.7477
RightToes  0.00048216 0.542163 -0.142577
Spine  20.8429 0.784771 6.62455
Spine1  11.37 4.35874 -6.92462
HEad  4.53193 17.0344 -10.0673
LeftShoulder1  8.45533 -13.6871 -42.7501
LeftArm  -18.7031 17.3144 -26.0576
LeftForeArm  36.0065 -74.968 -43.4292
LeftHand  -0.25398 0.0180481 5.50724
RightShoulder  4.95883 9.11687 33.3484
RightArm  0.493183 -9.94668 23.4228
RightForeArm  -7.1511 75.2163 56.1377
RightHand  0.800728 -11.3887 -16.309
LeftUpLeg  -26.1868 10.6375 5.3801
LeftLeg  56.046 4.97566 8.35012
LeftFoot  -3.28855 -0.104322 1.81644
LeftToes  1.06244e-005 4.65855e-005 -8.18506e-006
623
root  46.6316 38.8674 24.6811 -175.056 57.1997 -171.13
RightUpLeg  -6.9049 -37.7959 -4.9276
RightLeg  26.6899 -2.52059 -1.61156
RightFoot  -9.30218 -0.102459 2.3217
RightToes  0.00048216 0.542163 -0.142577
Spine  20.6457 1.14786 6.34839
Spine1  11.0883 4.43195 -6.89173
HEad  4.91373 15.7145 -9.67666
LeftShoulder1  8.45267 -13.7145 -42.6632
LeftArm  -18.5074 17.1352 -25.9308
LeftForeArm  35.638 -74.8294 -42.8789
LeftHand  -0.25398 0.0180481 5.50724
RightShoulder  5.0074 9.25071 33.317
RightArm  0.342857 -10.2189 23.7067
RightForeArm  -8.49281 74.8187 53.7842
RightHand  0.716089 -10.9595 -15.8163
LeftUpLeg  -27.9165 16.122 1.22237
LeftLeg  48.1749 6.58774 8.23023
LeftFoot  -4.57324 -0.130371 2.67941
LeftToes  1.06244e-005 4.65855e-005 -8.18506e-006
624
root  47.9381 39.0322 24.962 -174.705 53.6038 -171.409
RightUpLeg  -3.64717 -39.4914 -4.4554
RightLeg  24.2856 -4.23636 -1.87561
RightFoot  -10.6178 -0.0935562 3.50945
RightToes  0.00048216 0.542163 -0.142577
Spine  20.1965 1.57379 5.97698
Spine1  11.3169 4.63092 -6.84339
HEad  4.9677 14.2227 -8.95391
LeftShoulder1  8.40065 -13.6806 -42.4722
LeftArm  -18.2278 16.8556 -26.0376
LeftForeArm  36.6917 -75.0095 -43.4234
LeftHand  -0.25398 0.0180481 5.50724
RightShoulder  5.04778 9.33039 33.3875
RightArm  -0.18723 -10.8412 23.9405
RightForeArm  -9.2777 74.529 52.2079
RightHand  0.635272 -10.4838 -15.4479
LeftUpLeg  -28.6805 23.2017 -3.87564
LeftLeg  38.495 6.81323 6.2119
LeftFoot  -5.74616 -0.0706067 2.17593
LeftToes  1.06244e-005 4.65855e-005 -8.18506e-006
625
root  49.2499 39.0914 25.1025 -174.354 50.1871 -171.675
RightUpLeg  -1.02176 -39.0578 -3.99576
RightLeg  22.9831 -7.93196 -2.1011
RightFoot  -11.7995 -0.063486 4.5592
RightToes  0.00048216 0.542163 -0.142577
Spine  19.4364 1.92249 5.74449
Spine1  12.0493 4.91176 -6.82401
HEad  5.04727 12.6244 -7.92032
LeftShoulder1  8.35056 -13.6086 -42.3917
LeftArm  -18.0469 16.3715 -26.1913
LeftForeArm  37.1401 -75.0134 -43.3003
LeftHand  -0.25398 0.0180481 5.50724
RightShoulder  5.11318 9.40036 33.6789
RightArm  -0.864785 -11.4132 24.1476
RightForeArm  -9.74802 74.2596 50.8129
RightHand  0.583029 -10.2847 -14.8628
LeftUpLeg  -29.4453 33.4242 -10.7463
LeftLeg  28.0856 3.62994 2.66005
LeftFoot  -4.4576 0.105182 -1.18091
LeftToes  1.06244e-005 4.65855e-005 -8.18506e-006
626
root  50.546 39.0504 25.1142 -173.831 46.887 -171.475
RightUpLeg  1.30059 -39.2677 -3.093
RightLeg  22.3643 -11.0262 -2.5473
RightFoot  -13.2557 -0.0158113 4.50094
RightToes  0.00048216 0.542163 -0.142577
Spine  18.7212 2.03685 5.9412
Spine1  12.7699 5.15442 -6.92397
HEad  5.447 11.427 -7.2667
LeftShoulder1  8.35873 -13.5794 -42.5133
LeftArm  -18.0505 16.0675 -26.2893
LeftForeArm  36.5693 -74.7584 -42.2551
LeftHand  -0.25398 0.0180481 5.50724
RightShoulder  5.2227 9.54161 34.0859
RightArm  -1.53838 -12.0018 24.2673
RightForeArm  -9.65196 74.0193 49.5811
RightHand  0.552163 -10.362 -13.9696
LeftUpLeg  -29.852 44.128 -17.9383
LeftLeg  18.4018 1.18467 -0.0869701
LeftFoot  -1.49673 -0.0239281 0.12879
LeftToes  1.06244e-005 4.65855e-005 -8.18506e-006
627
root  51.8016 38.8566 25.0422 -173.571 43.5261 -171.071
RightUpLeg  3.83337 -42.4263 -2.53417
RightLeg  22.4567 -10.5307 -3.29733
RightFoot  -15.1113 0.104397 5.98129
RightToes  0.00048216 0.542163 -0.142577
Spine  18.4026 1.93588 5.9947
Spine1  13.2225 5.13373 -6.80819
HEad  5.94158 10.9062 -7.28064
LeftShoulder1  8.40237 -13.5853 -42.7345
LeftArm  -18.1619 16.153 -26.2255
LeftForeArm  35.8383 -74.4904 -41.2617
LeftHand  -0.25398 0.0180481 5.50724
RightShoulder  5.33597 9.70506 34.444
RightArm  -1.97201 -12.3542 24.3392
RightForeArm  -9.7554 73.6605 47.8978
RightHand  0.512678 -10.47 -12.8369
LeftUpLeg  -24.3874 39.1252 -15.4628
LeftLeg  9.95303 14.4683 -4.33867
LeftFoot  -0.689618 -0.958505 10.5987
LeftToes  1.06244e-005 4.65855e-005 -8.18506e-006
628
root  53.0016 38.5624 24.9429 -173.981 39.9255 -171.316
RightUpLeg  4.80996 -45.8824 -2.71643
RightLeg  25.95 -8.67812 -5.00349
RightFoot  -16.0893 0.340392 11.0928
RightToes  0.00048216 0.542163 -0.142577
Spine  18.6398 1.76215 4.92226
Spine1  13.4555 4.61631 -5.97983
HEad  5.96457 10.522 -7.28786
LeftShoulder1  8.47344 -13.613 -43.0449
LeftArm  -18.3852 15.988 -25.8806
LeftForeArm  34.7664 -74.1616 -40.1762
LeftHand  -0.25398 0.0180481 5.50724
RightShoulder  5.42574 9.79197 34.8494
RightArm  -2.22077 -11.8698 24.5781
RightForeArm  -11.0387 72.899 44.8598
RightHand  0.453944 -10.4589 -11.5865
LeftUpLeg  -16.1279 14.8963 -5.2872
LeftLeg  2.37209 42.1977 -10.2919
LeftFoot  -3.00929 -1.64935 22.6405
LeftToes  1.06244e-005 4.65855e-005 -8.18506e-006
629
root  54.1029 38.3512 24.8989 -174.758 35.9898 -172.636
RightUpLeg  0.985922 -44.394 -2.28097
RightLeg  35.5125 -10.5304 -8.30432
RightFoot  -12.8446 0.108791 16.1108
RightToes  0.00048216 0.542163 -0.142577
Spine  19.7637 1.54652 2.79984
Spine1  13.4263 3.69741 -4.72664
HEad  5.1505 9.46447 -6.8341
LeftShoulder1  8.67875 -13.8295 -43.5653
LeftArm  -18.7761 14.5087 -25.159
LeftForeArm  32.1115 -73.2947 -37.6306
LeftHand  -0.25398 0.0180481 5.50724
RightShoulder  5.51939 9.8366 35.4047
RightArm  -2.97186 -10.444 25.2815
RightForeArm  -12.9268 71.6699 40.769
RightHand  0.398116 -10.5045 -10.2959
LeftUpLeg  -17.0905 11.9917 -6.93113
LeftLeg  5.30543 42.4545 -6.31056
LeftFoot  -5.89202 -1.25546 26.2882
LeftToes  1.06244e-005 4.65855e-005 -8.18506e-006
630
root  55.038 38.2642 24.9849 -175.302 31.903 -174.546
RightUpLeg  -7.16522 -42.1756 -1.55559
RightLeg  48.4243 -9.60644 -11.6138
RightFoot  -3.69151 -0.955409 14.9163
RightToes  0.00048216 0.542163 -0.142577
Spine  22.2568 1.19345 1.00253
Spine1  13.0405 2.84008 -4.08099
HEad  3.38502 7.63073 -6.24153
LeftShoulder1  9.0912 -14.3871 -44.2478
LeftArm  -19.0874 11.1748 -24.123
LeftForeArm  27.6373 -71.4587 -33.1696
LeftHand  -0.25398 0.0180481 5.50724
RightShoulder  5.6202 9.96148 35.7625
RightArm  -4.76279 -8.5357 26.4682
RightForeArm  -14.2768 70.218 36.8013
RightHand  0.349199 -10.6445 -9.01111
LeftUpLeg  -20.2121 21.3235 -11.9887
LeftLeg  11.7884 28.1665 -0.678165
LeftFoot  -7.27293 -0.802578 23.5425
LeftToes  1.06244e-005 4.65855e-005 -8.18506e-006
